<svg width="80" height="80" viewBox="0 0 80 80" fill="none" xmlns="http://www.w3.org/2000/svg">
<path d="M59.1198 6.896H20.8798L1.75977 40.0001L20.8798 73.1041H59.1198L78.2398 40.0001L59.1198 6.896Z" stroke="#FD492E" stroke-width="0.8" stroke-miterlimit="10"/>
<path d="M23.4558 8.62394C23.6318 8.44794 40.8638 8.33594 41.1358 8.33594C41.4078 8.33594 58.6398 8.44794 58.7358 8.62394C58.8318 8.79994 76.0158 38.48 76.0158 38.752C76.0158 39.024 58.9918 68.704 58.8158 68.88C58.6398 69.056 41.4078 69.152 41.2158 69.152C41.0238 69.152 23.7118 69.056 23.6158 68.88C23.5198 68.704 6.17578 39.024 6.17578 38.752C6.17578 38.48 23.2798 8.79994 23.4558 8.62394Z" stroke="#FD492E" stroke-width="0.8" stroke-miterlimit="10"/>
<path d="M26.0162 10.3682C26.3842 10.0162 41.7282 9.79224 42.2722 9.79224C42.8162 9.79224 58.1762 10.0162 58.5282 10.3682C58.8802 10.7202 73.9682 36.9602 73.9682 37.5682C73.9682 38.1762 58.8802 64.3522 58.5282 64.7682C58.1762 65.1842 42.8162 65.3442 42.2722 65.3442C41.7282 65.3442 26.3842 65.1202 26.0162 64.7682C25.6482 64.4162 10.5762 38.1762 10.5762 37.5682C10.5762 36.9602 25.6002 10.7202 26.0162 10.3682Z" stroke="#FD492E" stroke-width="0.8" stroke-miterlimit="10"/>
<path d="M28.5922 12.112C29.1202 11.568 42.6082 11.2 43.4082 11.2C44.2082 11.2 57.6962 11.52 58.2242 12.064C58.7522 12.608 71.8402 35.44 71.8402 36.256C71.8402 37.072 58.7522 59.872 58.2242 60.4C57.6962 60.928 44.2242 61.264 43.4082 61.264C42.5922 61.264 29.1202 60.928 28.5922 60.4C28.0642 59.872 14.9922 37.056 14.9922 36.256C14.9922 35.456 28.0642 12.64 28.5922 12.112Z" stroke="#FD492E" stroke-width="0.8" stroke-miterlimit="10"/>
<path d="M31.1681 13.8399C31.8721 13.1359 43.4721 12.7039 44.5441 12.7039C45.6161 12.7039 57.2321 13.1359 57.9361 13.8399C58.6401 14.5439 69.6961 33.9198 69.6961 35.0078C69.6961 36.0958 58.6401 55.4558 57.9361 56.1598C57.2321 56.8638 45.6321 57.3118 44.5441 57.3118C43.4561 57.3118 31.8721 56.8638 31.1681 56.1598C30.4641 55.4558 19.3921 36.0798 19.3921 35.0078C19.3921 33.9358 30.4001 14.5439 31.1681 13.8399Z" stroke="#FD492E" stroke-width="0.8" stroke-miterlimit="10"/>
<path d="M33.7279 15.584C34.6239 14.688 44.3359 14.144 45.6799 14.144C47.0239 14.144 56.7519 14.688 57.6319 15.584C58.5119 16.4801 67.5679 32.4001 67.5679 33.7601C67.5679 35.1201 58.5279 51.0401 57.5999 51.9201C56.6719 52.8001 47.0079 53.3601 45.6479 53.3601C44.2879 53.3601 34.5919 52.8161 33.6959 51.9201C32.7999 51.0241 23.7759 35.1041 23.7759 33.7601C23.7759 32.4161 32.8479 16.4641 33.7279 15.584Z" stroke="#FD492E" stroke-width="0.8" stroke-miterlimit="10"/>
<path d="M36.304 17.3121C37.36 16.2561 45.2 15.6001 46.816 15.6001C48.432 15.6001 56.288 16.2561 57.344 17.3121C58.4 18.3681 65.44 30.8801 65.44 32.4961C65.44 34.1121 58.4 46.6241 57.344 47.6961C56.288 48.7681 48.448 49.4081 46.816 49.4081C45.184 49.4081 37.36 48.7521 36.304 47.6961C35.248 46.6401 28.208 34.1281 28.208 32.4961C28.208 30.8641 35.2 18.3841 36.304 17.3121Z" stroke="#FD492E" stroke-width="0.8" stroke-miterlimit="10"/>
<path d="M38.8639 19.0559C40.1119 17.8239 46.0639 17.0559 47.9519 17.0559C49.8399 17.0559 55.8079 17.8239 57.0399 19.0559C58.2719 20.2879 63.2959 29.3599 63.2959 31.2479C63.2959 33.1359 58.2879 42.2079 57.0399 43.4559C55.7919 44.7039 49.8559 45.4559 47.9999 45.4559C46.1439 45.4559 40.1599 44.6879 38.9119 43.4559C37.6639 42.2239 32.6719 33.1519 32.6719 31.2479C32.6719 29.3439 37.6319 20.2879 38.8639 19.0559Z" stroke="#FD492E" stroke-width="0.8" stroke-miterlimit="10"/>
<path d="M41.4399 20.8001C42.8479 19.3761 46.9279 18.4961 49.0879 18.4961C51.2479 18.4961 55.3279 19.3761 56.7519 20.8001C58.1759 22.2241 61.1679 27.8401 61.1679 30.0001C61.1679 32.1601 58.1599 37.7921 56.7519 39.2161C55.3439 40.6401 51.1999 41.5041 49.0879 41.5041C46.9759 41.5041 42.8479 40.6241 41.4399 39.2161C40.0319 37.8081 37.0239 32.1601 37.0239 30.0001C37.0239 27.8401 39.9999 22.2081 41.4399 20.8001Z" stroke="#FD492E" stroke-width="0.8" stroke-miterlimit="10"/>
<path d="M59.0402 28.7998C59.0447 30.8396 58.3418 32.818 57.0511 34.3975C55.7603 35.9772 53.9619 37.0604 51.9621 37.4625C49.9621 37.8646 47.8848 37.5607 46.0839 36.6028C44.2829 35.6447 42.8699 34.0918 42.0858 32.2087C41.3015 30.3257 41.1946 28.2289 41.7832 26.2758C42.3717 24.3227 43.6194 22.634 45.3135 21.4979C47.0075 20.3615 49.0434 19.8479 51.0738 20.0444C53.104 20.2411 55.0035 21.1356 56.4482 22.5758C57.2709 23.3897 57.9239 24.3591 58.3688 25.4276C58.8138 26.4961 59.0419 27.6423 59.0402 28.7998Z" stroke="#FD492E" stroke-width="0.8" stroke-miterlimit="10"/>
</svg>
