<svg width="80" height="80" viewBox="0 0 80 80" fill="none" xmlns="http://www.w3.org/2000/svg">
<path d="M59.1198 6.896H20.8798L1.75977 40.0001L20.8798 73.1041H59.1198L78.2398 40.0001L59.1198 6.896Z" stroke="#FD492E" stroke-width="0.8" stroke-miterlimit="10"/>
<path d="M59.184 9.85596H24.368L6.95996 39.9999L24.368 70.1439H59.184L76.592 39.9999L59.184 9.85596Z" stroke="#FD492E" stroke-width="0.8" stroke-miterlimit="10"/>
<path d="M59.2482 12.8159H27.8562L12.1602 39.9999L27.8562 67.1839H59.2482L74.9442 39.9999L59.2482 12.8159Z" stroke="#FD492E" stroke-width="0.8" stroke-miterlimit="10"/>
<path d="M59.3119 15.7761H31.3439L17.3599 40.0001L31.3439 64.2241H59.3119L73.2959 40.0001L59.3119 15.7761Z" stroke="#FD492E" stroke-width="0.8" stroke-miterlimit="10"/>
<path d="M59.3921 18.7361H34.8321L22.5601 40.0001L34.8321 61.2641H59.3921L71.6641 40.0001L59.3921 18.7361Z" stroke="#FD492E" stroke-width="0.8" stroke-miterlimit="10"/>
<path d="M59.4558 21.696H38.3198L27.7598 40L38.3198 58.304H59.4558L70.0158 40L59.4558 21.696Z" stroke="#FD492E" stroke-width="0.8" stroke-miterlimit="10"/>
<path d="M59.52 24.6719H41.808L32.96 39.9999L41.808 55.3279H59.52L68.368 39.9999L59.52 24.6719Z" stroke="#FD492E" stroke-width="0.8" stroke-miterlimit="10"/>
<path d="M59.5842 27.6321H45.2962L38.1602 40.0001L45.2962 52.3681H59.5842L66.7202 40.0001L59.5842 27.6321Z" stroke="#FD492E" stroke-width="0.8" stroke-miterlimit="10"/>
<path d="M59.6479 30.592H48.7839L43.3599 40L48.7839 49.408H59.6479L65.0879 40L59.6479 30.592Z" stroke="#FD492E" stroke-width="0.8" stroke-miterlimit="10"/>
<path d="M59.7281 33.552H52.2721L48.5601 40L52.2721 46.448H59.7281L63.4401 40L59.7281 33.552Z" stroke="#FD492E" stroke-width="0.8" stroke-miterlimit="10"/>
</svg>
