<svg width="80" height="80" viewBox="0 0 80 80" fill="none" xmlns="http://www.w3.org/2000/svg">
<path d="M32.3042 9.59997C23.8402 7.15197 11.9522 1.98397 7.69618 10.544C3.04018 19.9519 11.2802 28.7999 16.6562 35.7599C20.3522 41.0399 19.0402 45.5519 14.1442 50.7039C3.20018 62.1759 8.12818 77.5359 24.2402 77.7919C31.2642 77.7919 37.7762 74.4639 43.9682 71.1359C55.8402 64.7359 63.1682 69.4559 70.8962 63.9039C76.0802 60.2079 72.4162 50.7679 70.2722 45.0879C68.4434 40.338 68.3247 35.0999 69.9362 30.2719C71.5362 24.1599 72.5602 14.272 65.8082 11.216C62.7362 10.064 59.2002 11.392 56.0002 10.352C52.0322 9.02397 50.0482 4.33597 46.1602 2.78397C38.5922 -0.256033 38.4002 11.2 32.3042 9.59997Z" stroke="#FD492E" stroke-width="0.8" stroke-miterlimit="10"/>
<path d="M46.7041 4.62391C50.4001 6.06391 52.3201 10.4639 56.0961 11.7279C59.0561 12.7199 62.4961 11.4239 65.3441 12.6079C71.7441 15.2959 71.1521 24.9279 69.4241 30.6719C68.0383 35.3002 68.1673 40.2501 69.7921 44.7999C71.7921 50.2399 75.1521 59.1999 70.2241 62.7519C62.8321 68.0959 55.8241 63.7919 44.6241 69.7599C38.7521 72.8639 32.5601 76.0159 25.9361 75.9039C10.7361 75.6799 6.04812 61.1199 16.1601 50.3039C20.7041 45.4239 22.0321 41.0719 18.4801 36.1279C13.6801 29.3919 5.80812 21.1039 10.2401 12.2239C14.2401 4.04791 25.4401 8.79991 33.4561 10.9759C39.2161 12.5439 39.4881 1.77591 46.7041 4.62391Z" stroke="#FD492E" stroke-width="0.784" stroke-miterlimit="10"/>
<path d="M47.1679 6.39991C50.6719 7.75991 52.5599 11.8399 56.1279 13.0399C58.9279 13.9839 62.1439 12.7999 64.8799 13.9359C71.0079 16.5758 70.3999 25.5998 68.9119 31.0718C67.6722 35.461 67.8119 40.125 69.3119 44.4318C71.1679 49.6478 74.2399 58.1118 69.5679 61.5358C62.5759 66.6558 55.9039 62.7838 45.1999 68.3038C39.6479 71.1998 33.8079 74.0958 27.5999 73.9518C13.2799 73.5998 8.79995 59.9998 18.1279 49.7438C22.3199 45.1358 23.5359 41.0078 20.2239 36.3518C15.696 29.9518 8.51195 22.1118 12.704 13.7439C16.5439 6.11191 27.1039 10.4319 34.6239 12.3999C39.9999 13.8399 40.3839 3.83991 47.1679 6.39991Z" stroke="#FD492E" stroke-width="0.752" stroke-miterlimit="10"/>
<path d="M47.6318 8.30388C50.9598 9.59988 52.7998 13.3439 56.1598 14.4799C58.7998 15.3599 61.8398 14.3039 64.4158 15.3919C70.1758 17.856 69.7918 26.304 68.3998 31.488C67.2977 35.6393 67.4368 40.0227 68.7998 44.096C70.5438 49.088 73.2958 57.072 68.8958 60.352C62.3038 65.264 55.9358 61.792 45.8078 66.896C40.5598 69.552 35.0718 72.208 29.1998 72.032C15.8398 71.664 11.5998 58.912 20.1118 49.248C23.9518 44.928 25.0398 41.04 21.9998 36.64C17.8238 30.576 11.1998 23.184 15.2158 15.3279C18.8318 8.17588 28.6558 12.1279 35.7918 13.8399C40.8798 15.1199 41.2638 5.90388 47.6318 8.30388Z" stroke="#FD492E" stroke-width="0.736" stroke-miterlimit="10"/>
<path d="M48.0959 10.144C51.2959 11.296 53.0079 14.784 56.1919 15.84C58.6879 16.688 61.5199 15.76 63.9359 16.784C69.3599 19.12 69.1039 26.992 67.8879 31.888C66.93 35.8154 67.0852 39.9319 68.3359 43.7761C69.9359 48.5761 72.3999 56.016 68.2559 59.168C62.0479 63.856 55.9839 60.768 46.4479 65.568C41.5199 68 36.3519 70.368 30.8639 70.192C18.4319 69.68 14.3998 57.84 22.1119 48.768C25.5999 44.72 26.5919 41.072 23.8079 36.928C19.9519 31.2 13.9998 24.256 17.7279 16.928C21.1359 10.24 30.2719 13.728 36.9279 15.328C41.7119 16.4 42.1599 8.00005 48.0959 10.144Z" stroke="#FD492E" stroke-width="0.72" stroke-miterlimit="10"/>
<path d="M48.5761 11.984C51.5361 13.04 53.2321 16.2081 56.2241 17.2161C58.5601 18.0161 61.2161 17.2161 63.4721 18.1921C68.5441 20.4001 68.4321 27.6801 67.3761 32.2881C66.5484 35.9986 66.714 39.8618 67.8561 43.4881C69.3121 48.0161 71.4721 55.0081 67.5841 58.0321C61.7921 62.4001 56.0001 59.7921 47.0721 64.0001C42.4481 66.2081 37.6321 68.3681 32.5281 68.1441C21.0081 67.6161 17.1201 56.6721 24.1121 48.2241C27.3121 44.4481 28.1121 41.0401 25.6001 37.1681C22.0801 31.7601 16.7361 25.2641 20.2401 18.4641C23.4401 12.224 31.8721 15.264 38.1121 16.6401C42.5441 17.6961 43.0561 9.99997 48.5761 11.984Z" stroke="#FD492E" stroke-width="0.688" stroke-miterlimit="10"/>
<path d="M49.04 13.8239C51.808 14.7839 53.472 17.648 56.256 18.624C58.448 19.36 60.912 18.624 63.008 19.616C67.712 21.712 67.808 28.416 66.864 32.72C66.1767 36.2027 66.3525 39.8008 67.376 43.2C68.688 47.488 70.576 54 66.928 56.88C61.536 61.136 56.048 58.88 47.728 62.736C43.424 64.72 38.944 66.608 34.224 66.368C23.632 65.76 19.936 55.728 26.224 47.888C28.992 44.368 29.76 41.216 27.488 37.6C24.288 32.544 19.6 26.48 22.848 20.192C25.84 14.4319 33.6 16.992 39.392 18.224C43.376 18.976 43.952 12.0639 49.04 13.8239Z" stroke="#FD492E" stroke-width="0.672" stroke-miterlimit="10"/>
<path d="M49.5041 15.6639C52.0961 16.5278 53.6961 19.0878 56.2881 19.9678C58.3201 20.6558 60.5921 20.0798 62.5441 20.9758C66.8961 22.9598 67.0721 29.0718 66.3521 33.0878C65.8121 36.3203 65.998 39.6322 66.8961 42.7838C68.0641 46.8638 69.6321 52.8638 66.2721 55.5838C61.2801 59.6158 56.0961 57.7758 48.3041 61.2158C44.3041 62.9758 40.1761 64.6238 35.8401 64.3358C26.2401 63.6798 22.6721 54.5278 28.0961 47.2958C30.5281 44.0958 31.1681 41.1198 29.1681 37.7758C26.3361 33.0558 22.2241 27.4398 25.2481 21.6798C28.0321 16.3838 35.0881 18.4798 40.4481 19.5358C44.2081 20.2718 44.8001 14.1119 49.5041 15.6639Z" stroke="#FD492E" stroke-width="0.64" stroke-miterlimit="10"/>
<path d="M49.9842 17.5041C52.3842 18.2721 53.9202 20.5281 56.3842 21.3441C58.2722 21.9841 60.3522 21.5201 62.1442 22.3681C66.1442 24.2241 66.4482 29.7601 65.9042 33.5681C65.497 36.5633 65.6928 39.6097 66.4802 42.5281C67.5042 46.3681 68.7842 51.8881 65.6802 54.4961C61.0882 58.3201 56.1922 56.8801 48.9922 59.8881C45.2962 61.4881 41.5042 62.8321 37.5522 62.5121C28.8002 61.7921 25.5042 53.5361 30.1602 46.8961C32.2242 43.9361 32.7682 41.2481 31.0242 38.1761C28.5442 33.7761 25.0242 28.5761 27.8242 23.3761C30.3842 18.5761 36.7682 20.2881 41.6642 21.0721C45.0402 21.5521 45.7282 16.1601 49.9842 17.5041Z" stroke="#FD492E" stroke-width="0.624" stroke-miterlimit="10"/>
<path d="M50.4481 19.3442C52.6721 20.0162 54.1441 21.9682 56.3521 22.7042C58.0801 23.2962 59.9681 22.9762 61.6001 23.7602C65.2481 25.5042 65.6961 30.4482 65.3281 33.9042C65.056 36.6593 65.2561 39.4406 65.9201 42.1282C66.8161 45.7442 67.8081 50.7842 64.9601 53.3282C60.8001 56.8642 56.1601 55.8402 49.6001 58.4162C46.3534 59.9282 42.7955 60.6519 39.2161 60.5282C31.3761 59.7282 28.2881 52.3842 32.1441 46.3522C33.0339 45.2343 33.5726 43.8778 33.6921 42.454C33.8118 41.0303 33.5068 39.603 32.8161 38.3522C30.6721 34.2882 27.7761 29.5842 30.3201 24.8482C32.6881 20.4962 38.3201 21.8082 42.8321 22.3842C45.8561 22.8482 46.6241 18.2082 50.4481 19.3442Z" stroke="#FD492E" stroke-width="0.608" stroke-miterlimit="10"/>
<path d="M50.9122 21.1838C52.9602 21.7438 54.3842 23.3918 56.3842 24.0798C57.9842 24.6238 59.5842 24.4158 61.1842 25.1518C64.4802 26.7518 65.0562 31.1358 64.8642 34.3038C64.733 36.8219 64.9429 39.3461 65.4882 41.8078C66.2402 45.1838 66.9282 49.7278 64.3362 52.0638C60.5602 55.4558 56.3362 54.8478 50.2082 57.0078C47.2548 58.2608 44.0501 58.8086 40.8482 58.6078C33.9362 57.7438 31.0402 51.3118 34.1282 45.8078C34.8354 44.759 35.2509 43.541 35.3325 42.2787C35.4141 41.0163 35.1586 39.755 34.5922 38.6238C32.7842 34.8958 30.4962 30.6238 32.8162 26.4318C34.9762 22.5438 39.9682 23.4238 44.0162 23.8078C46.6882 24.1278 47.5202 20.2558 50.9122 21.1838Z" stroke="#FD492E" stroke-width="0.576" stroke-miterlimit="10"/>
<path d="M51.3759 23.0241C53.2479 23.4881 54.5759 24.8321 56.4159 25.4561C57.8593 25.7148 59.2817 26.0783 60.6719 26.5441C63.5999 28.0481 64.3199 31.8241 64.3039 34.7041C64.3059 36.9759 64.5255 39.2423 64.9599 41.4721C65.5679 44.6721 65.9679 48.6881 63.6319 50.8641C60.2559 54.0641 56.2399 53.8561 50.8319 55.6641C48.1804 56.6671 45.3334 57.0449 42.5119 56.7681C41.235 56.666 40.0025 56.2525 38.9223 55.5639C37.842 54.8753 36.9471 53.9324 36.3156 52.8178C35.6841 51.7033 35.3353 50.4508 35.2998 49.1703C35.2644 47.8897 35.5431 46.6199 36.1119 45.4721C36.6396 44.4949 36.9356 43.4097 36.9772 42.3001C37.0188 41.1905 36.8049 40.086 36.3519 39.0721C34.8959 35.6641 33.1519 31.8561 35.3119 28.1761C37.2479 24.7521 41.5519 25.2001 45.1199 25.3761C47.5199 25.4241 48.4159 22.2881 51.3759 23.0241Z" stroke="#FD492E" stroke-width="0.56" stroke-miterlimit="10"/>
<path d="M51.8561 24.8641C53.4278 25.4199 54.9617 26.0773 56.4481 26.8321C57.731 27.0906 58.9891 27.4601 60.2081 27.9361C62.7841 29.3281 63.6321 32.5121 63.7921 35.1041C63.9041 37.0561 64.1761 39.1841 64.4801 41.1521C64.9441 44.0801 65.0401 47.6321 62.9761 49.6801C60.0001 52.6561 56.2881 52.8801 51.3921 54.1761C49.0481 54.9268 46.5629 55.1293 44.1281 54.7681C43.0293 54.6234 41.9763 54.2356 41.0461 53.6327C40.116 53.0298 39.3318 52.2271 38.751 51.2829C38.1702 50.3389 37.8072 49.2772 37.6883 48.1751C37.5694 47.073 37.6979 45.9583 38.0641 44.9121C38.7603 43.0993 38.7603 41.093 38.0641 39.2801C36.9601 36.2081 35.8881 32.8801 37.7441 29.6801C39.6001 26.4801 43.0721 26.6721 46.2081 26.7361C48.3521 26.7681 49.3121 24.3201 51.8561 24.8641Z" stroke="#FD492E" stroke-width="0.544" stroke-miterlimit="10"/>
<path d="M52.3199 26.704C53.7471 27.0854 55.1388 27.5886 56.4799 28.208C57.5812 28.4742 58.653 28.8494 59.6799 29.328C60.6914 30.0336 61.5334 30.955 62.1449 32.026C62.7564 33.0969 63.1223 34.2904 63.2159 35.52C63.4559 37.2 63.7279 39.056 63.9359 40.816C64.2399 43.52 64.0479 46.576 62.3359 48.496C59.7279 51.2 56.3199 51.888 52.0159 52.8C49.9678 53.2899 47.8361 53.3171 45.7759 52.88C43.8919 52.5152 42.2282 51.4212 41.1466 49.8363C40.0649 48.2513 39.6529 46.3033 39.9999 44.416C40.329 42.826 40.2743 41.1804 39.8399 39.616C39.0879 36.864 38.6079 33.968 40.2239 31.328C41.8399 28.688 44.7999 28.416 47.4239 28.16C49.1679 28 50.2239 26.352 52.3199 26.704Z" stroke="#FD492E" stroke-width="0.512" stroke-miterlimit="10"/>
<path d="M52.8002 28.5443C54.0786 28.7384 55.3299 29.082 56.5282 29.5683C57.4554 29.8611 58.3506 30.247 59.2002 30.7203C60.9826 31.9492 62.2344 33.8068 62.7042 35.9203C63.0893 37.415 63.341 38.9411 63.4562 40.4803C63.7426 42.9144 63.0714 45.3643 61.5842 47.3123C59.2157 49.7705 55.9872 51.2156 52.5762 51.3443C50.8335 51.5956 49.0567 51.4534 47.3762 50.9283C45.8666 50.4625 44.5387 49.5398 43.5759 48.2875C42.613 47.0352 42.0624 45.5148 42.0002 43.9363C41.9672 42.575 41.8442 41.2174 41.6322 39.8723C41.0861 37.4864 41.4815 34.9819 42.7362 32.8803C43.4304 31.9712 44.3015 31.212 45.2968 30.6483C46.2922 30.0846 47.3914 29.7281 48.5282 29.6003C50.0002 29.3123 51.2002 28.3843 52.8002 28.5443Z" stroke="#FD492E" stroke-width="0.496" stroke-miterlimit="10"/>
<path d="M53.2638 49.936C58.663 49.936 63.0398 45.5592 63.0398 40.16C63.0398 34.7608 58.663 30.384 53.2638 30.384C47.8646 30.384 43.4878 34.7608 43.4878 40.16C43.4878 45.5592 47.8646 49.936 53.2638 49.936Z" stroke="#FD492E" stroke-width="0.464" stroke-miterlimit="10"/>
</svg>
