<svg width="80" height="80" viewBox="0 0 80 80" fill="none" xmlns="http://www.w3.org/2000/svg">
<path d="M78.2402 52.8H26.2402V0.751953H42.5922C52.0466 0.751953 61.114 4.50771 67.7993 11.193C74.4846 17.8782 78.2402 26.9454 78.2402 36.4V52.8Z" stroke="#FD492E" stroke-width="0.688" stroke-miterlimit="10"/>
<path d="M74.0159 55.3277H23.7759V5.07178H39.9999C44.4661 5.06969 48.8892 5.94757 53.016 7.65528C57.1429 9.36301 60.893 11.8671 64.0519 15.0245C67.2108 18.1818 69.7165 21.9308 71.4263 26.0569C73.1359 30.1829 74.0159 34.6055 74.0159 39.0718V55.3277Z" stroke="#FD492E" stroke-width="0.688" stroke-miterlimit="10"/>
<path d="M69.792 57.8881H21.312V9.39209H37.44C41.6885 9.39209 45.8955 10.2289 49.8207 11.8547C53.7458 13.4806 57.3122 15.8636 60.3163 18.8677C63.3205 21.8719 65.7035 25.4385 67.3295 29.3636C68.9552 33.2887 69.792 37.4956 69.792 41.7441V57.8881Z" stroke="#FD492E" stroke-width="0.704" stroke-miterlimit="10"/>
<path d="M65.6001 60.4482H18.8481V13.7122H34.8481C38.8851 13.708 42.8832 14.4995 46.6141 16.0413C50.3449 17.5834 53.7352 19.8455 56.5912 22.6986C59.4472 25.5516 61.7129 28.9396 63.2587 32.6687C64.8045 36.398 65.6001 40.3952 65.6001 44.4322V60.4482Z" stroke="#FD492E" stroke-width="0.72" stroke-miterlimit="10"/>
<path d="M61.3598 63.008H16.3838V18.032H32.2878C39.9969 18.0363 47.3889 21.1006 52.8401 26.5517C58.2913 32.0029 61.3555 39.3949 61.3598 47.104V63.008Z" stroke="#FD492E" stroke-width="0.736" stroke-miterlimit="10"/>
<path d="M57.1359 65.5999H13.9199V22.3999H29.7119C36.9769 22.3999 43.945 25.2826 49.0866 30.4153C54.2282 35.5479 57.1233 42.5109 57.1359 49.7759V65.5999Z" stroke="#FD492E" stroke-width="0.736" stroke-miterlimit="10"/>
<path d="M52.9121 68.1439H11.4561V26.6719H27.2001C34.0267 26.6932 40.5663 29.4197 45.386 34.2544C50.2057 39.0892 52.9121 45.6373 52.9121 52.4639V68.1439Z" stroke="#FD492E" stroke-width="0.752" stroke-miterlimit="10"/>
<path d="M48.7042 70.7042H8.99219V30.9922H24.5602C30.9623 30.9965 37.101 33.5416 41.6279 38.0685C46.1549 42.5955 48.6999 48.7341 48.7042 55.1362V70.7042Z" stroke="#FD492E" stroke-width="0.768" stroke-miterlimit="10"/>
<path d="M44.4798 73.2643H6.52783V35.3123H21.9838C27.9516 35.3164 33.6736 37.6902 37.8918 41.9115C42.1102 46.1329 44.4798 51.8564 44.4798 57.8243V73.2643Z" stroke="#FD492E" stroke-width="0.784" stroke-miterlimit="10"/>
<path d="M40.256 75.8401H4.06396V39.6321H19.408C22.1395 39.6321 24.8442 40.1702 27.3678 41.2154C29.8914 42.2607 32.1843 43.7929 34.1158 45.7242C36.0472 47.6558 37.5794 49.9487 38.6246 52.4722C39.6699 54.9959 40.208 57.7006 40.208 60.4321L40.256 75.8401Z" stroke="#FD492E" stroke-width="0.784" stroke-miterlimit="10"/>
<path d="M36.0481 78.3999H1.6001V43.9519H16.8321C21.9243 43.9519 26.8078 45.9748 30.4086 49.5754C34.0092 53.1761 36.0321 58.0597 36.0321 63.1519L36.0481 78.3999Z" stroke="#FD492E" stroke-width="0.8" stroke-miterlimit="10"/>
</svg>
