<svg width="52" height="61" viewBox="0 0 52 61" fill="none" xmlns="http://www.w3.org/2000/svg">
<g clip-path="url(#clip0_161_20571)">
<path fill-rule="evenodd" clip-rule="evenodd" d="M34.8976 45.6393C34.8935 46.0033 34.8832 46.3609 34.8667 46.7115C34.7546 49.0816 34.3588 51.1036 33.7099 52.6793C32.1957 51.8987 30.5854 50.6141 28.9661 48.8805C28.7265 48.624 28.4872 48.3581 28.2484 48.0833C28.2616 43.0546 27.1241 36.8874 24.7908 30.5352C22.4575 24.1832 19.3327 18.7464 16.0679 14.9224C16.072 14.5584 16.0823 14.2009 16.0989 13.8503C16.2108 11.4802 16.6067 9.4581 17.2556 7.88245C18.7699 8.66305 20.3801 9.94771 21.9994 11.6813C22.239 11.9378 22.4783 12.2036 22.7171 12.4785C22.704 17.5072 23.8415 23.6745 26.1747 30.0266C28.5079 36.3786 31.6327 41.8154 34.8976 45.6393ZM35.608 46.4435C35.5133 49.0093 35.0986 51.2385 34.3706 52.9905C35.8786 53.6322 37.2303 53.7277 38.3889 53.3018C39.4622 52.9074 40.3723 52.0646 41.0839 50.7774C39.3055 49.9335 37.4422 48.4484 35.608 46.4435ZM41.4104 50.1247C39.804 49.3656 38.0805 48.024 36.3466 46.1677C36.107 45.9113 35.8676 45.6454 35.6289 45.3706C35.642 40.3418 34.5045 34.1746 32.1713 27.8225C29.838 21.4704 26.7132 16.0337 23.4484 12.2098C23.4525 11.8456 23.4627 11.4881 23.4794 11.1376C23.5992 8.60008 24.0444 6.46161 24.7773 4.84272C26.3837 5.60187 28.1072 6.94338 29.8411 8.79965C33.3514 12.5577 36.8029 18.3172 39.3283 25.1925C41.8537 32.0678 42.9511 38.6925 42.7084 43.8299C42.5885 46.3673 42.1433 48.5058 41.4104 50.1247ZM41.7568 51.0674C40.9786 52.5006 39.9382 53.5098 38.6405 53.9868C37.2555 54.4958 35.7014 54.353 34.0681 53.6546C33.2755 55.2443 32.1836 56.3595 30.7987 56.8684C29.5011 57.3453 28.055 57.25 26.5345 56.6618C25.7565 58.095 24.716 59.1042 23.4182 59.5812C17.5588 61.7346 8.67337 52.2218 3.572 38.3336C-1.52937 24.4455 -0.914858 11.4412 4.94455 9.28772C6.2422 8.81081 7.6883 8.9061 9.20879 9.49436C9.98684 8.06115 11.0273 7.05196 12.3251 6.575C13.71 6.06598 15.2641 6.20878 16.8973 6.90712C17.6901 5.31746 18.7819 4.20235 20.1668 3.69338C21.4645 3.21647 22.9105 3.31174 24.431 3.90001C25.2091 2.46681 26.2495 1.4576 27.5472 0.980641C33.4067 -1.17283 42.2921 8.33996 47.3935 22.2281C52.4948 36.1163 51.8803 49.1206 46.021 51.274C44.7233 51.7509 43.2773 51.6556 41.7568 51.0674ZM25.1038 4.19004C25.8155 2.90283 26.7255 2.06002 27.7988 1.66554C29.0283 1.21367 30.4754 1.3489 32.0958 2.10094C33.7198 2.85466 35.4654 4.20673 37.2216 6.08693C40.7319 9.84497 44.1834 15.6045 46.7088 22.4798C49.2342 29.3551 50.3316 35.9797 50.0889 41.1171C49.9674 43.6874 49.5122 45.8484 48.7623 47.4745C48.0141 49.0971 46.9989 50.1373 45.7694 50.5892C44.6961 50.9836 43.4571 50.9306 42.0817 50.4106C44.4434 45.1722 43.819 35.3025 40.0131 24.9409C36.2069 14.5791 30.2944 6.65275 25.1038 4.19004ZM24.106 4.55678C22.7306 4.03676 21.4916 3.98384 20.4183 4.37828C19.2599 4.80405 18.2916 5.75209 17.5577 7.21745C19.2464 8.08129 21.0052 9.51151 22.7379 11.4055C22.8383 8.68998 23.2969 6.35156 24.106 4.55678ZM23.456 13.3602C26.4503 17.0604 29.3118 22.1535 31.4866 28.0741C33.6613 33.9948 34.7771 39.7296 34.89 44.4888C31.8956 40.7886 29.0342 35.6954 26.8594 29.7749C24.6847 23.8542 23.5689 18.1194 23.456 13.3602ZM28.2275 49.1562C29.9604 51.0502 31.719 52.4805 33.4077 53.3443C32.6738 54.8097 31.7056 55.7578 30.5472 56.1835C29.4739 56.5779 28.2349 56.525 26.8595 56.005C27.6687 54.2102 28.1273 51.8718 28.2275 49.1562ZM27.4862 49.4242C27.5027 49.0736 27.513 48.7161 27.5171 48.3521C24.2522 44.5281 21.1274 39.0913 18.7942 32.7393C16.461 26.3871 15.3235 20.2199 15.3366 15.1913C15.0978 14.9164 14.8585 14.6506 14.6189 14.394C12.8851 12.5377 11.1615 11.1962 9.55507 10.4371C8.82218 12.0559 8.37706 14.1945 8.25713 16.7319C8.01437 21.8693 9.11177 28.494 11.6372 35.3693C14.1626 42.2445 17.6141 48.004 21.1244 51.7621C22.8582 53.6184 24.5817 54.9599 26.1882 55.7191C26.9211 54.1002 27.3663 51.9617 27.4862 49.4242ZM19.4789 32.4876C21.6537 38.4082 24.5151 43.5014 27.5095 47.2015C27.3967 42.4423 26.2809 36.7075 24.1061 30.7869C21.9314 24.8663 19.0698 19.7731 16.0755 16.073C16.1884 20.8322 17.3042 26.567 19.4789 32.4876ZM16.5948 7.57132C15.8669 9.32333 15.4522 11.5524 15.3575 14.1183C13.5233 12.1134 11.6601 10.6282 9.88158 9.78441C10.5932 8.4972 11.5033 7.65436 12.5766 7.25991C13.7352 6.8341 15.0869 6.92962 16.5948 7.57132ZM8.88374 10.1511C6.52209 15.3896 7.14647 25.2593 10.9525 35.6209C14.7586 45.9828 20.6711 53.909 25.8617 56.3718C25.1501 57.659 24.24 58.5018 23.1667 58.8962C21.9371 59.3481 20.4902 59.2129 18.8697 58.4608C17.2457 57.7071 15.5001 56.3551 13.7439 54.4749C10.2336 50.7168 6.78213 44.9573 4.25672 38.082C1.7313 31.2067 0.633872 24.582 0.876634 19.4446C0.998097 16.8744 1.4533 14.7135 2.20317 13.0873C2.95136 11.4647 3.96662 10.4245 5.19613 9.97266C6.26938 9.5782 7.50834 9.6311 8.88374 10.1511Z" fill="#100F0D"/>
</g>
<defs>
<clipPath id="clip0_161_20571">
<rect width="51.0625" height="60.5625" fill="white"/>
</clipPath>
</defs>
</svg>
