<svg width="785" height="500" viewBox="0 0 785 500" fill="none" xmlns="http://www.w3.org/2000/svg">
<path d="M736.317 34.4443C736.317 39.9672 740.795 44.4443 746.317 44.4443H775C780.523 44.4443 785 48.9215 785 54.4443V445.556C785 451.079 780.523 455.556 775 455.556H746.318C740.796 455.556 736.318 460.033 736.318 465.556V490C736.318 495.523 731.841 500 726.318 500H58.6826C53.1598 500 48.6826 495.523 48.6826 490V465.556C48.6826 460.033 44.2055 455.556 38.6826 455.556H10C4.47715 455.556 0 451.079 0 445.556V54.4443C0 48.9215 4.47715 44.4443 10 44.4443H38.6826C44.2055 44.4443 48.6826 39.9672 48.6826 34.4443V10C48.6826 4.47715 53.1598 0 58.6826 0H726.317C731.84 0 736.317 4.47715 736.317 10V34.4443Z" fill="#C4C4C4"/>
</svg>
