<svg width="86" height="60" viewBox="0 0 86 60" fill="none" xmlns="http://www.w3.org/2000/svg">
<g clip-path="url(#clip0_176_297)">
<path fill-rule="evenodd" clip-rule="evenodd" d="M2.23955 18.5194C0.0127245 24.0013 -0.569916 30.0332 0.565392 35.8528C1.70056 41.6721 4.5027 47.0177 8.61724 51.2132C12.7318 55.4087 17.9742 58.266 23.6812 59.4236C29.3886 60.5811 35.3041 59.9869 40.6801 57.7164C46.056 55.4458 50.651 51.6004 53.8837 46.6671C53.9699 46.5356 54.0551 46.4034 54.1392 46.2705C54.1985 46.1769 54.2574 46.0826 54.3159 45.9881V60H56.579C62.3979 60 68.0862 58.2405 72.9243 54.9439C77.7627 51.6478 81.5336 46.9622 83.7604 41.4804C85.9873 35.9987 86.57 29.9668 85.4346 24.1472C84.2994 18.3279 81.4975 12.9823 77.3828 8.78683C73.2681 4.59118 68.0258 1.73403 62.3188 0.576517C56.6114 -0.581131 50.6959 0.012976 45.3199 2.28362C39.944 4.55428 35.349 8.39949 32.1163 13.3329C31.9692 13.5574 31.8252 13.7839 31.6841 14.012V1.78876e-05H29.421C23.6021 1.78876e-05 17.9138 1.75952 13.0756 5.05599C8.23738 8.3523 4.46639 13.0377 2.23955 18.5194ZM27.1579 30V4.72048C23.033 5.10444 19.0542 6.53351 15.5903 8.89344C11.4964 11.6827 8.30562 15.6474 6.42136 20.2857C4.5371 24.9242 4.04411 30.0281 5.00468 34.9524C5.96526 39.8764 8.3363 44.3996 11.8178 47.9496C15.2994 51.4997 19.7352 53.9173 24.5644 54.8968C29.3935 55.8763 34.3989 55.3736 38.9479 53.4523C43.3141 51.6081 47.0715 48.5366 49.7852 44.6014C47.7285 45.597 45.428 46.1539 43 46.1539C34.2508 46.1539 27.1579 38.9214 27.1579 30ZM58.8421 55.2795V30C58.8421 21.0785 51.7492 13.8462 43 13.8462C40.572 13.8462 38.2715 14.4031 36.2148 15.3986C38.9285 11.4634 42.6859 8.39173 47.0521 6.54771C51.6011 4.62639 56.6065 4.12369 61.4356 5.10317C66.2647 6.08263 70.7006 8.50033 74.1823 12.0503C77.6638 15.6005 80.0348 20.1236 80.9952 25.0476C81.9558 29.9719 81.4629 35.0758 79.5786 39.7142C77.6946 44.3526 74.5037 48.3174 70.4097 51.1065C66.9458 53.4664 62.9671 54.8955 58.8421 55.2795ZM42.7736 41.5363C36.7037 41.4148 31.8056 36.42 31.6865 30.2308H35.9676C39.3448 31.0157 42.0035 33.7264 42.7736 37.1702V41.5363ZM43.2262 41.5363C49.2961 41.4148 54.1944 36.42 54.3135 30.2308H50.0324C46.6548 31.0157 43.9961 33.7269 43.2262 37.1711V41.5363ZM54.3135 29.7692C54.1944 23.58 49.2961 18.5852 43.2262 18.4638V22.8289C43.9961 26.2729 46.6546 28.9841 50.0318 29.7692H54.3135ZM42.7736 18.4638C36.7039 18.5852 31.8056 23.58 31.6865 29.7692H35.9682C39.3452 28.9841 42.0037 26.2734 42.7736 22.8298V18.4638Z" fill="#100F0D"/>
</g>
<defs>
<clipPath id="clip0_176_297">
<rect width="86" height="60" fill="white"/>
</clipPath>
</defs>
</svg>
