<svg width="90" height="60" viewBox="0 0 90 60" fill="none" xmlns="http://www.w3.org/2000/svg">
<path d="M58.8001 48C68.7412 48 76.8001 39.9411 76.8001 30C76.8001 20.0589 68.7412 12 58.8001 12C49.4703 12 41.7984 19.0981 40.8901 28.1887C37.2126 26.5254 33.2396 25.5314 29.1709 25.2698C31.4392 10.9487 43.8411 0 58.8001 0C75.3687 0 88.8001 13.4315 88.8001 30C88.8001 45.9642 76.3305 59.016 60.6 59.9469V60H40.8293V57.3818C40.8293 53.9805 39.4266 50.6731 36.8558 48.2004C34.2775 45.7206 30.7362 44.291 27 44.291C23.2638 44.291 19.7225 45.7206 17.1442 48.2004C14.5735 50.6731 13.1707 53.9805 13.1707 57.3818V60H0V57.3177C0 50.3056 2.91006 43.6359 8.00011 38.7597C12.9273 34.0395 19.507 31.3653 26.3567 31.2075C26.5709 31.2026 26.7854 31.2 27 31.2C27.1662 31.2 27.3322 31.2015 27.4983 31.2045C34.3999 31.3277 41.0379 34.0061 45.9999 38.7597C48.7486 41.3929 50.8617 44.5493 52.2238 48H58.8001Z" fill="#100F0D"/>
<path d="M32.5157 52.3867C33.9783 53.6587 34.8002 55.384 34.8002 57.1829V59.9999H19.2002V57.1829C19.2002 55.384 20.022 53.6587 21.4847 52.3867C22.9475 51.1145 24.9315 50.3999 27.0002 50.3999C29.0688 50.3999 31.0529 51.1145 32.5157 52.3867Z" fill="#100F0D"/>
<path d="M65.6727 27.0544C63.5037 27.0544 61.7456 25.2963 61.7456 23.1273V22.1454C61.7456 20.5188 60.4268 19.2 58.8 19.2C57.1733 19.2 55.8546 20.5186 55.8546 22.1454V23.1273C55.8546 25.2963 54.0963 27.0544 51.9273 27.0544H50.9454C49.3188 27.0544 48 28.3732 48 30C48 31.6267 49.3188 32.9454 50.9454 32.9454H51.9273C54.0963 32.9454 55.8546 34.7037 55.8546 36.8727V37.8546C55.8546 39.4813 57.1733 40.8 58.8 40.8C60.4268 40.8 61.7456 39.4813 61.7456 37.8546V36.8727C61.7456 34.7037 63.5037 32.9454 65.6727 32.9454H66.6546C68.2814 32.9454 69.6 31.6267 69.6 30C69.6 28.3732 68.2814 27.0544 66.6546 27.0544H65.6727Z" fill="#100F0D"/>
<path d="M16.8001 4.80006C16.8001 7.45098 18.9492 9.59999 21.6001 9.59999H22.8C24.7882 9.59999 26.4 11.2118 26.4 13.2C26.4 15.1882 24.7882 16.8 22.8 16.8H21.6001C18.9492 16.8 16.8001 18.9491 16.8001 21.5998V22.8C16.8001 24.7882 15.1884 26.4 13.2002 26.4C11.2119 26.4 9.60016 24.7882 9.60016 22.8V21.6C9.60016 18.949 7.45113 16.8 4.80017 16.8H3.6C1.61178 16.8 0 15.1882 0 13.2C0 11.2118 1.61178 9.59999 3.6 9.59999H4.80018C7.45113 9.59999 9.60016 7.45096 9.60016 4.8V3.6C9.60016 1.61178 11.2119 0 13.2002 0C15.1884 0 16.8001 1.61178 16.8001 3.6V4.80006Z" fill="#100F0D"/>
</svg>
