<svg width="60" height="60" viewBox="0 0 60 60" fill="none" xmlns="http://www.w3.org/2000/svg">
<g clip-path="url(#clip0_176_119)">
<path fill-rule="evenodd" clip-rule="evenodd" d="M15 0C23.2842 0 30 6.71572 30 15V0H45C53.2842 0 60 6.71572 60 15C60 23.2842 53.2842 30 45 30C53.2842 30 60 36.7158 60 45C60 49.1134 58.3442 52.8402 55.6628 55.5501L55.6066 55.6066L55.5568 55.6562C52.8463 58.3414 49.1169 60 45 60C40.9112 60 37.2043 58.3639 34.4985 55.7107C34.4634 55.6763 34.4283 55.6414 34.3933 55.6066C34.3605 55.5738 34.3278 55.5408 34.2952 55.5077C31.6386 52.8013 30 49.092 30 45C30 53.2842 23.2842 60 15 60C6.71572 60 0 53.2842 0 45V30H15C6.71572 30 0 23.2842 0 15C0 6.71572 6.71572 0 15 0ZM27 15C27 21.6275 21.6275 27 15 27V3C21.6275 3 27 8.37258 27 15ZM57 45C57 38.3726 51.6274 33 45 33C38.3726 33 33 38.3726 33 45H57ZM3 33V45C3 51.6274 8.37258 57 15 57C21.6275 57 27 51.6274 27 45V33H3ZM33 27V3H45C51.6274 3 57 8.37258 57 15C57 21.6275 51.6274 27 45 27H33Z" fill="#100F0D"/>
</g>
<defs>
<clipPath id="clip0_176_119">
<rect width="60" height="60" fill="white"/>
</clipPath>
</defs>
</svg>
